<svg xmlns="http://www.w3.org/2000/svg" viewBox="0 0 242 247" style="width: 100%; height: 100%;">
<path d="M101.16,125.75 L99.57,127.75 C96.05,123.40 93.85,123.41 86.75,124.10 C84.61,124.83 88.92,129.40 86.96,132.07 C86.95,132.08 76.53,135.68 71.63,145.25 C66.94,161.87 58.92,153.73 73.71,169.61 C94.02,166.74 95.77,170.65 87.16,185.25 C81.62,193.76 77.55,204.03 74.07,214.25 C63.86,214.81 86.79,178.03 87.98,174.75 L88.00,172.00 C85.65,169.65 76.98,179.40 65.83,165.25 C61.21,159.39 59.31,155.77 65.84,149.75 C68.45,139.56 74.84,132.75 84.00,129.37 C85.23,127.36 79.99,124.29 81.95,122.56 C87.90,118.36 97.97,120.85 101.16,125.75 Z" fill="#615D34"/>
<path d="M181.33,120.95 C182.16,119.44 182.35,105.95 186.15,109.75 C193.72,128.62 177.76,140.58 176.88,156.83 C181.44,167.14 187.47,178.64 185.75,193.75 L183.32,192.75 C184.85,182.50 178.85,177.55 173.06,174.53 L173.01,173.26 C184.17,175.85 168.98,167.79 174.17,165.53 C184.88,176.99 171.79,154.24 170.92,151.25 C170.73,144.77 171.25,135.99 173.89,132.01 L176.04,131.99 C174.87,133.83 171.18,152.63 175.41,149.75 C178.57,139.86 185.50,133.15 184.99,119.78 C182.55,119.82 184.23,120.84 183.03,120.95 L181.33,120.95 Z" fill="#615D34"/>
<path d="M52.94,119.09 L53.54,118.00 C63.30,119.48 74.12,108.55 76.60,100.93 C77.23,99.02 79.49,83.43 79.86,82.97 C80.77,81.85 83.04,84.05 83.04,84.05 C81.99,103.32 76.03,119.04 57.85,120.75 C58.97,130.96 27.77,164.69 23.73,164.56 C22.69,164.52 21.70,163.52 22.00,162.63 C30.34,156.51 50.66,134.75 52.94,124.32 C53.07,123.70 52.78,119.81 52.94,119.09 Z" fill="#615D34"/>
<path d="M101.50,55.55 L101.51,57.48 C92.05,55.64 83.22,58.20 78.30,62.61 C63.66,62.88 58.05,80.52 52.97,91.75 C51.77,94.39 47.56,99.73 47.44,103.96 C47.39,105.67 48.63,108.24 48.62,110.00 L46.33,110.01 C45.48,107.41 43.94,102.80 44.50,98.61 C52.91,86.05 55.53,66.73 70.25,60.52 L74.25,60.50 C79.88,55.55 91.24,52.57 101.50,55.55 Z" fill="#615D34"/>
<path d="M110.00,132.78 C116.65,137.25 118.49,148.63 120.79,156.31 C127.08,164.67 133.91,172.37 136.01,184.72 C137.66,187.44 140.54,231.92 132.55,219.73 C134.47,212.84 134.72,202.32 134.08,194.75 C131.54,165.04 121.70,168.02 116.43,153.25 C115.26,146.77 112.96,138.50 108.36,134.47 L110.00,132.78 Z" fill="#615D34"/>
<path d="M146.75,45.97 L147.88,47.03 C146.46,54.27 148.66,52.01 149.53,53.12 L149.57,54.65 C149.57,54.65 147.20,54.30 146.85,54.65 C146.69,63.42 147.59,70.41 153.11,74.08 L151.83,75.57 C140.54,69.31 138.11,52.49 126.00,46.47 L126.00,44.88 C127.61,44.60 131.87,48.27 129.98,43.96 L130.68,42.83 C137.67,49.32 127.88,33.20 127.12,33.60 L128.75,31.88 C136.51,37.59 138.06,51.38 142.53,61.00 L143.85,61.00 C144.14,55.65 143.67,47.81 146.75,45.97 Z" fill="#615D34"/>
<path d="M130.68,42.83 L129.98,43.96 C124.65,37.50 116.80,32.37 109.05,28.25 C117.03,29.63 125.71,37.06 130.68,42.83 Z" fill="#6A6248"/>
<path d="M196.00,103.25 C203.27,116.11 212.90,136.61 207.63,155.75 L205.25,154.75 C209.32,135.04 200.16,117.20 193.49,104.41 L196.00,103.25 Z" fill="#615D34"/>
<path d="M157.66,108.37 C162.57,120.51 140.62,133.56 127.48,130.14 L127.52,128.16 C140.65,128.40 154.22,119.64 155.45,108.58 L157.66,108.37 Z" fill="#615D34"/>
<path d="M196.00,103.25 L193.49,104.41 C184.44,90.48 166.64,83.86 151.83,75.57 L153.11,74.08 C167.84,82.32 187.21,89.29 196.00,103.25 Z" fill="#6A6248"/>
<path d="M157.66,108.37 L155.45,108.58 C149.92,100.96 139.57,95.77 134.05,88.68 C123.45,74.97 129.45,62.53 101.51,57.48 L101.50,55.55 C118.68,58.55 129.20,69.55 133.48,84.76 C139.02,94.88 150.48,100.23 157.66,108.37 Z" fill="#6A6248"/>
<path d="M126.00,44.88 L126.00,46.47 C109.90,45.54 105.00,32.70 92.57,28.57 L93.06,26.69 C105.97,29.74 111.22,43.47 126.00,44.88 Z" fill="#6A6248"/>
<path d="M128.75,31.88 L127.12,33.60 C115.76,25.62 114.65,19.00 93.75,23.27 C93.86,24.74 94.44,24.88 92.34,25.97 C91.74,25.23 88.68,25.27 89.50,22.46 C112.32,19.78 115.51,19.88 128.75,31.88 Z" fill="#6A6248"/>
<path d="M175.54,43.75 C176.22,44.01 188.28,56.69 181.68,56.00 L171.41,51.05 L172.20,49.77 C179.79,52.30 177.08,48.76 173.85,45.46 L175.54,43.75 Z" fill="#615D34"/>
<path d="M173.85,45.46 C159.30,35.75 159.33,41.09 147.88,47.03 L146.75,45.97 C147.08,45.81 148.65,43.87 148.65,43.87 C160.22,38.18 162.89,35.26 175.54,43.75 L173.85,45.46 Z" fill="#6A6248"/>
<path d="M173.01,173.26 L173.06,174.53 C172.59,173.54 120.20,165.43 142.75,164.03 C142.35,164.65 140.54,164.55 141.00,166.06 L173.01,173.26 Z" fill="#6A6248"/>
<path d="M172.20,49.77 L171.41,51.05 C164.15,49.70 154.71,52.03 149.57,54.65 L149.53,53.12 C154.45,50.32 165.71,48.08 172.20,49.77 Z" fill="#6A6248"/>
<path d="M110.00,132.78 L108.36,134.47 L99.57,127.75 L101.16,125.75 L110.00,132.78 Z" fill="#6A6248"/>
<path d="M89.50,22.46 C88.68,25.27 91.74,25.23 92.34,25.97 L93.06,26.69 L92.57,28.57 C89.72,27.30 85.05,25.27 82.71,24.71 C84.07,23.84 87.33,22.98 89.50,22.46 Z" fill="#615D34"/>
<path d="M181.33,120.95 L183.03,120.95 L176.04,131.99 L173.89,132.01 C175.76,128.08 178.79,123.70 181.33,120.95 Z" fill="#6A6248"/>
<path d="M127.52,128.16 L127.48,130.14 C121.81,128.30 115.04,126.41 111.92,122.00 C116.72,124.28 121.06,127.47 127.52,128.16 Z" fill="#6A6248"/>
<path d="M112.61,89.01 C115.78,90.59 104.01,99.72 103.00,92.50 C107.86,93.01 110.87,91.39 112.61,89.01 Z" fill="#6A6248"/>
<path d="M48.62,110.00 C49.96,112.12 51.00,116.64 53.54,118.00 L52.94,119.09 C50.27,116.97 47.62,113.64 46.33,110.01 L48.62,110.00 Z" fill="#6A6248"/>
<path d="M160.94,160.50 C160.94,160.50 161.68,161.29 161.47,161.35 C158.83,162.04 153.07,161.62 150.61,161.97 C150.14,162.04 148.88,162.76 148.25,162.87 C135.63,165.04 155.99,159.46 160.94,160.50 Z" fill="#6A6248"/>
<path d="M171.71,164.49 C171.58,167.00 163.53,162.26 163.53,162.25 C161.80,160.02 171.79,162.95 171.71,164.49 Z" fill="#6A6248"/>
<path d="M83.50,150.07 C83.50,150.07 83.50,151.08 83.50,151.08 C82.90,150.87 78.71,150.24 78.50,149.93 C76.98,147.74 83.11,148.05 83.50,150.07 Z" fill="#6A6248"/>
<path d="M205.25,154.75 L207.63,155.75 C206.70,156.47 205.90,159.45 203.00,159.00 C203.00,159.00 203.00,158.00 203.00,158.00 C203.08,157.80 203.87,158.18 203.95,158.02 C204.11,157.68 205.42,153.79 205.25,154.75 Z" fill="#6A6248"/>
<path d="M183.32,192.75 L185.75,193.75 C184.77,195.67 181.59,195.28 183.32,192.75 Z" fill="#6A6248"/>
<path d="M102.25,25.93 C101.90,25.93 98.81,26.13 98.50,26.00 C98.50,26.00 98.50,25.00 98.50,25.00 C99.52,24.59 102.99,25.92 102.25,25.93 Z" fill="#6A6248"/>
<path d="M103.25,26.04 C104.08,26.03 105.09,26.23 105.50,26.50 C106.48,27.13 104.22,27.13 102.75,26.50 C101.89,26.13 101.96,26.07 103.25,26.04 Z" fill="#6A6248"/>
</svg>
